<svg xmlns="http://www.w3.org/2000/svg" version="1.1" xmlns:xlink="http://www.w3.org/1999/xlink" xmlns:svgjs="http://svgjs.dev/svgjs" width="2000" height="1500" viewBox="0 0 2000 1500"><rect width="2000" height="1500" fill="#0a1627"></rect><g transform="matrix(0.75,0,0,0.75,249.090909090909,282.7536437246963)"><svg viewBox="0 0 396 247" data-background-color="#0a1627" preserveAspectRatio="xMidYMid meet" height="1247" width="2000" xmlns="http://www.w3.org/2000/svg" xmlns:xlink="http://www.w3.org/1999/xlink"><g id="tight-bounds" transform="matrix(1,0,0,1,0.2400000000000091,-0.09999999999999432)"><svg viewBox="0 0 395.52 247.2" height="247.2" width="395.52"><g><svg></svg></g><g><svg viewBox="0 0 395.52 247.2" height="247.2" width="395.52"><mask id="9094f974-b0e2-4781-bbd9-ed6a11732493"><rect width="395.52" height="247.2" fill="white"></rect><g transform="matrix(1,0,0,1,0,39.94436924020776)" id="clone"><svg viewBox="0 0 395.52 167.31126151958446" height="167.31126151958446" width="395.52"><g><svg viewBox="0 0 395.52 167.31126151958446" height="167.31126151958446" width="395.52"><g><svg viewBox="0 0 409.06260689444815 173.04" height="167.31126151958446" width="395.52"><g transform="matrix(1,0,0,1,111.98167043959866,0)"><svg viewBox="0 0 297.0809364548495 173.04" height="173.04" width="297.0809364548495"><g id="SvgjsG6103"><svg viewBox="0 0 297.0809364548495 173.04" height="173.04" width="297.0809364548495" id="SvgjsSvg6102"><g><svg viewBox="0 0 297.0809364548495 173.04" height="173.04" width="297.0809364548495"><g transform="matrix(1,0,0,1,0,0)"><svg width="297.0809364548495" viewBox="-2.95 -40 78 45.85" height="173.04" data-palette-color="#fe0039"><path d="M20.5-21.05L20.5-21.05 22.4-23.8Q21.45-24.5 20.33-24.9 19.2-25.3 18.05-25.45 16.9-25.6 15.85-25.6L15.85-25.6Q14.2-25.6 12.53-25.13 10.85-24.65 9.47-23.73 8.1-22.8 7.25-21.4 6.4-20 6.4-18.2L6.4-18.2Q6.45-16.7 7.03-15.6 7.6-14.5 8.58-13.75 9.55-13 10.68-12.43 11.8-11.85 12.95-11.38 14.1-10.9 15.08-10.38 16.05-9.85 16.65-9.18 17.25-8.5 17.25-7.5L17.25-7.5Q17.25-6.3 16.68-5.38 16.1-4.45 15.15-3.85 14.2-3.25 13.15-2.93 12.1-2.6 11.15-2.6L11.15-2.6Q9.75-2.6 8.55-2.95 7.35-3.3 6.4-3.98 5.45-4.65 4.6-5.6L4.6-5.6 2.05-3.45Q3.4-1.45 5.7-0.3 8 0.85 10.7 0.85L10.7 0.85Q12.6 0.85 14.43 0.28 16.25-0.3 17.75-1.43 19.25-2.55 20.15-4.15 21.05-5.75 21.1-7.8L21.1-7.8Q21.1-9.25 20.5-10.3 19.9-11.35 18.93-12.1 17.95-12.85 16.78-13.43 15.6-14 14.45-14.48 13.3-14.95 12.3-15.5 11.3-16.05 10.73-16.73 10.15-17.4 10.15-18.4L10.15-18.4Q10.15-19.4 10.68-20.13 11.2-20.85 12.05-21.3 12.9-21.75 13.85-21.98 14.8-22.2 15.7-22.25L15.7-22.25Q16.6-22.25 17.48-22.13 18.35-22 19.13-21.73 19.9-21.45 20.5-21.05ZM32.3-23.55L32.3-23.55 34.75-35 31.05-35 23.6 0 27.35 0 31.7-20.6Q32.75-21.15 33.75-21.48 34.75-21.8 35.72-21.98 36.7-22.15 37.65-22.15L37.65-22.15Q38.7-22.15 39.62-21.9 40.55-21.65 41.22-21.05 41.9-20.45 42.12-19.5 42.35-18.55 42.1-17.15L42.1-17.15 38.45 0 42.1 0 45.8-17.3Q46.2-19 46.07-20.35 45.95-21.7 45.4-22.65 44.85-23.6 43.92-24.25 43-24.9 41.77-25.2 40.55-25.5 39.05-25.5L39.05-25.5Q37.9-25.5 36.67-25.23 35.45-24.95 34.32-24.5 33.2-24.05 32.3-23.55ZM61.4-2.05L61.4-2.05 61 0 64.7 0 70.05-25.05 66.34-25.05 62.84-8.7Q62.55-7.5 61.92-6.53 61.3-5.55 60.37-4.83 59.45-4.1 58.35-3.65 57.25-3.2 56.05-3.05L56.05-3.05Q54.2-2.9 53.1-3.38 52-3.85 51.62-5.03 51.25-6.2 51.65-8L51.65-8 55.25-25.05 51.55-25.05 47.85-7.85Q47.5-6.1 47.62-4.73 47.75-3.35 48.32-2.38 48.9-1.4 49.82-0.78 50.75-0.15 51.97 0.15 53.2 0.45 54.6 0.45L54.6 0.45Q55.85 0.45 57.1 0.15 58.35-0.15 59.47-0.73 60.59-1.3 61.4-2.05Z" opacity="1" transform="matrix(1,0,0,1,0,0)" fill="black" class="wordmark-text-0" id="SvgjsPath6101" stroke-width="9" stroke="black" stroke-linejoin="round"></path></svg></g></svg></g></svg></g></svg></g><g transform="matrix(1,0,0,1,0,36.74999492283516)"><svg viewBox="0 0 91.79800936454849 99.54001015432968" height="99.54001015432968" width="91.79800936454849"><g><svg xmlns="http://www.w3.org/2000/svg" xmlns:xlink="http://www.w3.org/1999/xlink" version="1.1" x="0" y="0" viewBox="9 5 83 90" style="enable-background:new 0 0 100 100;" xml:space="preserve" height="99.54001015432968" width="91.79800936454849" class="icon-icon-0" data-fill-palette-color="accent" id="SvgjsSvg6100"><path d="M88.707 55.293C87.729 54.313 84 48.535 84 47 84 46.3 84.15 45.726 84.34 44.998 84.635 43.873 85 42.472 85 40 85 34.047 81.106 18.519 69.537 11.156 63.57 7.359 53.785 5 44 5 40.149 5 26.916 5.67 18.293 14.293 10.957 21.628 9 35.161 9 42 9 47.892 12.261 55.428 15.051 60.264A0.96 0.96 0 0 0 15.293 60.707C15.3 60.714 15.309 60.715 15.315 60.722 15.998 61.877 16.646 62.862 17.2 63.6 20.041 67.389 21 69.256 21 71 21 77.348 19.066 86.227 16.074 93.622 16.024 93.745 16 93.876 16.001 94.008 16.001 94.072 16.025 94.133 16.038 94.197 16.051 94.26 16.053 94.323 16.078 94.383A1 1 0 0 0 16.428 94.797 1 1 0 0 0 16.734 94.948C16.822 94.973 16.911 95 17 95A1 1 0 0 0 17.339 94.934C17.371 94.923 17.399 94.907 17.429 94.892A1 1 0 0 0 17.655 94.743C17.672 94.728 17.692 94.723 17.708 94.708L25.708 86.708A0.999 0.999 0 1 0 24.294 85.294L19.478 90.11C19.836 89.033 20.169 87.95 20.478 86.86 20.558 86.816 20.64 86.776 20.708 86.708L28.708 78.708A0.999 0.999 0 1 0 27.294 77.294L21.432 83.155A69 69 0 0 0 22.272 78.948 0.97 0.97 0 0 0 22.708 78.708L30.708 70.708A0.999 0.999 0 1 0 29.294 69.294L22.695 75.893C22.828 74.705 22.908 73.567 22.95 72.466L30.707 64.708A0.999 0.999 0 1 0 29.293 63.294L22.865 69.722C22.726 68.993 22.471 68.232 22.045 67.37L28.707 60.708A0.999 0.999 0 1 0 27.293 59.294L21.015 65.572A41 41 0 0 0 19.736 63.679L25.708 57.707A0.999 0.999 0 1 0 24.294 56.293L18.545 62.042A31 31 0 0 1 17.285 60.13L22.708 54.707A0.999 0.999 0 1 0 21.294 53.293L16.246 58.341A52 52 0 0 1 15.166 56.248L20.708 50.707A0.999 0.999 0 1 0 19.294 49.293L14.264 54.322A52 52 0 0 1 13.281 51.945 0.96 0.96 0 0 0 13.708 51.707L19.708 45.707A0.999 0.999 0 1 0 18.294 44.293L12.579 50.008A39 39 0 0 1 11.845 47.57L19.708 39.707A0.999 0.999 0 1 0 18.294 38.293L11.331 45.256A19 19 0 0 1 11.018 42.398L18.708 34.708A0.999 0.999 0 1 0 17.294 33.294L11.082 39.506A53 53 0 0 1 11.424 35.897 1 1 0 0 0 11.708 35.709L19.708 27.709A0.999 0.999 0 1 0 18.294 26.295L11.94 32.649A50 50 0 0 1 13.067 27.989 1 1 0 0 0 13.708 27.709L21.708 19.709A0.999 0.999 0 1 0 20.294 18.295L14.374 24.215C15.667 21.015 17.397 18.02 19.708 15.709 27.786 7.628 40.344 7 44 7 53.283 7 62.885 9.294 68.463 12.844 78.736 19.381 83 33.756 83 40 83 42.215 82.684 43.425 82.405 44.493 82.197 45.29 82 46.043 82 47 82 49.431 86.256 55.67 87.293 56.707 89.454 58.869 89.959 59.701 90 60 90 61.109 89.201 61.588 87.377 62.414 86.345 62.881 85.175 63.411 84.293 64.293A1 1 0 0 0 84.071 65.371L85.81 69.719C85.123 70.271 83.992 71 83 71A1 1 0 0 0 82.552 72.895 2.56 2.56 0 0 1 83.874 74.385C82.777 74.91 81 76.062 81 78 81 79.371 81.406 80.352 81.703 81.068 81.863 81.453 82 81.785 82 82 82 82.05 81.782 87 74 87 61.52 87 52.701 80.277 52.613 80.21A1 1 0 0 0 51.387 81.789C51.592 81.949 54.362 84.055 58.944 85.95 57.042 90.726 56.062 93.654 56.051 93.683A1.003 1.003 0 0 0 57 95C57.419 95 57.809 94.735 57.949 94.316 57.959 94.287 58.926 91.399 60.81 86.67 64.412 87.959 68.89 89 74 89 82.203 89 84 83.947 84 82 84 81.387 83.782 80.861 83.551 80.304 83.28 79.649 83 78.973 83 78 83 76.967 84.717 76.152 85.316 75.949A1 1 0 0 0 86 75C86 74.926 85.986 73.676 85.123 72.498 86.51 71.873 87.547 70.867 87.707 70.707A1 1 0 0 0 87.929 69.629L86.196 65.297C86.776 64.881 87.499 64.555 88.203 64.235 89.895 63.469 92 62.516 92 60 92 58.817 90.793 57.379 88.707 55.293" fill="black" stroke-width="9" stroke="black" stroke-linejoin="round"></path></svg></g></svg></g></svg></g></svg></g></svg></g></mask><g mask="url(#9094f974-b0e2-4781-bbd9-ed6a11732493)"><g><path transform="translate(89.41714,243.08571) scale(6.85714,6.85714)" d="M27.65-30.45v0l1.6-3.15c-0.733-0.433-1.507-0.793-2.32-1.08-0.82-0.28-1.67-0.477-2.55-0.59-0.887-0.12-1.78-0.18-2.68-0.18v0c-1.3 0-2.633 0.133-4 0.4-1.367 0.267-2.667 0.707-3.9 1.32-1.233 0.62-2.283 1.447-3.15 2.48-0.867 1.033-1.467 2.317-1.8 3.85v0c-0.3 1.433-0.307 2.667-0.02 3.7 0.28 1.033 0.78 1.933 1.5 2.7 0.713 0.767 1.547 1.423 2.5 1.97 0.947 0.553 1.947 1.07 3 1.55 1.047 0.487 2.053 0.98 3.02 1.48 0.967 0.5 1.827 1.04 2.58 1.62 0.747 0.587 1.297 1.263 1.65 2.03 0.347 0.767 0.403 1.683 0.17 2.75v0c-0.233 1.167-0.667 2.173-1.3 3.02-0.633 0.853-1.39 1.547-2.27 2.08-0.887 0.533-1.84 0.923-2.86 1.17-1.013 0.253-2.053 0.38-3.12 0.38v0c-1.1 0-2.223-0.143-3.37-0.43-1.153-0.28-2.203-0.71-3.15-1.29-0.953-0.587-1.697-1.33-2.23-2.23v0l-2.6 2.35c0.767 1.133 1.7 2.083 2.8 2.85 1.1 0.767 2.327 1.343 3.68 1.73 1.347 0.38 2.77 0.57 4.27 0.57v0c1.567 0 3.11-0.19 4.63-0.57 1.513-0.387 2.92-0.98 4.22-1.78 1.3-0.8 2.417-1.827 3.35-3.08 0.933-1.247 1.583-2.737 1.95-4.47v0c0.333-1.533 0.36-2.86 0.08-3.98-0.287-1.113-0.787-2.07-1.5-2.87-0.72-0.8-1.553-1.493-2.5-2.08-0.953-0.58-1.97-1.103-3.05-1.57-1.087-0.467-2.12-0.933-3.1-1.4-0.987-0.467-1.863-0.967-2.63-1.5-0.767-0.533-1.323-1.167-1.67-1.9-0.353-0.733-0.43-1.617-0.23-2.65v0c0.2-0.933 0.61-1.71 1.23-2.33 0.613-0.613 1.337-1.097 2.17-1.45 0.833-0.347 1.7-0.587 2.6-0.72 0.9-0.133 1.717-0.2 2.45-0.2v0c0.8 0 1.577 0.05 2.33 0.15 0.747 0.1 1.48 0.267 2.2 0.5 0.713 0.233 1.387 0.517 2.02 0.85z" fill="#fe0039" fill-rule="nonzero" stroke="none" stroke-width="1" stroke-linecap="butt" stroke-linejoin="miter" stroke-miterlimit="10" stroke-dasharray="" stroke-dashoffset="0" font-family="none" font-weight="none" font-size="none" text-anchor="none" style="mix-blend-mode: normal" data-fill-palette-color="tertiary"></path></g></g><g transform="matrix(1,0,0,1,0,39.94436924020776)"><svg viewBox="0 0 395.52 167.31126151958446" height="167.31126151958446" width="395.52"><g><svg viewBox="0 0 395.52 167.31126151958446" height="167.31126151958446" width="395.52"><g><svg viewBox="0 0 409.06260689444815 173.04" height="167.31126151958446" width="395.52"><g transform="matrix(1,0,0,1,111.98167043959866,0)"><svg viewBox="0 0 297.0809364548495 173.04" height="173.04" width="297.0809364548495"><g id="textblocktransform"><svg viewBox="0 0 297.0809364548495 173.04" height="173.04" width="297.0809364548495" id="textblock"><g><svg viewBox="0 0 297.0809364548495 173.04" height="173.04" width="297.0809364548495"><g transform="matrix(1,0,0,1,0,0)"><svg width="297.0809364548495" viewBox="-2.95 -40 78 45.85" height="173.04" data-palette-color="#fe0039"><path d="M20.5-21.05L20.5-21.05 22.4-23.8Q21.45-24.5 20.33-24.9 19.2-25.3 18.05-25.45 16.9-25.6 15.85-25.6L15.85-25.6Q14.2-25.6 12.53-25.13 10.85-24.65 9.47-23.73 8.1-22.8 7.25-21.4 6.4-20 6.4-18.2L6.4-18.2Q6.45-16.7 7.03-15.6 7.6-14.5 8.58-13.75 9.55-13 10.68-12.43 11.8-11.85 12.95-11.38 14.1-10.9 15.08-10.38 16.05-9.85 16.65-9.18 17.25-8.5 17.25-7.5L17.25-7.5Q17.25-6.3 16.68-5.38 16.1-4.45 15.15-3.85 14.2-3.25 13.15-2.93 12.1-2.6 11.15-2.6L11.15-2.6Q9.75-2.6 8.55-2.95 7.35-3.3 6.4-3.98 5.45-4.65 4.6-5.6L4.6-5.6 2.05-3.45Q3.4-1.45 5.7-0.3 8 0.85 10.7 0.85L10.7 0.85Q12.6 0.85 14.43 0.28 16.25-0.3 17.75-1.43 19.25-2.55 20.15-4.15 21.05-5.75 21.1-7.8L21.1-7.8Q21.1-9.25 20.5-10.3 19.9-11.35 18.93-12.1 17.95-12.85 16.78-13.43 15.6-14 14.45-14.48 13.3-14.95 12.3-15.5 11.3-16.05 10.73-16.73 10.15-17.4 10.15-18.4L10.15-18.4Q10.15-19.4 10.68-20.13 11.2-20.85 12.05-21.3 12.9-21.75 13.85-21.98 14.8-22.2 15.7-22.25L15.7-22.25Q16.6-22.25 17.48-22.13 18.35-22 19.13-21.73 19.9-21.45 20.5-21.05ZM32.3-23.55L32.3-23.55 34.75-35 31.05-35 23.6 0 27.35 0 31.7-20.6Q32.75-21.15 33.75-21.48 34.75-21.8 35.72-21.98 36.7-22.15 37.65-22.15L37.65-22.15Q38.7-22.15 39.62-21.9 40.55-21.65 41.22-21.05 41.9-20.45 42.12-19.5 42.35-18.55 42.1-17.15L42.1-17.15 38.45 0 42.1 0 45.8-17.3Q46.2-19 46.07-20.35 45.95-21.7 45.4-22.65 44.85-23.6 43.92-24.25 43-24.9 41.77-25.2 40.55-25.5 39.05-25.5L39.05-25.5Q37.9-25.5 36.67-25.23 35.45-24.95 34.32-24.5 33.2-24.05 32.3-23.55ZM61.4-2.05L61.4-2.05 61 0 64.7 0 70.05-25.05 66.34-25.05 62.84-8.7Q62.55-7.5 61.92-6.53 61.3-5.55 60.37-4.83 59.45-4.1 58.35-3.65 57.25-3.2 56.05-3.05L56.05-3.05Q54.2-2.9 53.1-3.38 52-3.85 51.62-5.03 51.25-6.2 51.65-8L51.65-8 55.25-25.05 51.55-25.05 47.85-7.85Q47.5-6.1 47.62-4.73 47.75-3.35 48.32-2.38 48.9-1.4 49.82-0.78 50.75-0.15 51.97 0.15 53.2 0.45 54.6 0.45L54.6 0.45Q55.85 0.45 57.1 0.15 58.35-0.15 59.47-0.73 60.59-1.3 61.4-2.05Z" opacity="1" transform="matrix(1,0,0,1,0,0)" fill="#fe0039" class="wordmark-text-0" data-fill-palette-color="primary" id="text-0"></path></svg></g></svg></g></svg></g></svg></g><g transform="matrix(1,0,0,1,0,36.74999492283516)"><svg viewBox="0 0 91.79800936454849 99.54001015432968" height="99.54001015432968" width="91.79800936454849"><g><svg xmlns="http://www.w3.org/2000/svg" xmlns:xlink="http://www.w3.org/1999/xlink" version="1.1" x="0" y="0" viewBox="9 5 83 90" style="enable-background:new 0 0 100 100;" xml:space="preserve" height="99.54001015432968" width="91.79800936454849" class="icon-icon-0" data-fill-palette-color="accent" id="icon-0"><path d="M88.707 55.293C87.729 54.313 84 48.535 84 47 84 46.3 84.15 45.726 84.34 44.998 84.635 43.873 85 42.472 85 40 85 34.047 81.106 18.519 69.537 11.156 63.57 7.359 53.785 5 44 5 40.149 5 26.916 5.67 18.293 14.293 10.957 21.628 9 35.161 9 42 9 47.892 12.261 55.428 15.051 60.264A0.96 0.96 0 0 0 15.293 60.707C15.3 60.714 15.309 60.715 15.315 60.722 15.998 61.877 16.646 62.862 17.2 63.6 20.041 67.389 21 69.256 21 71 21 77.348 19.066 86.227 16.074 93.622 16.024 93.745 16 93.876 16.001 94.008 16.001 94.072 16.025 94.133 16.038 94.197 16.051 94.26 16.053 94.323 16.078 94.383A1 1 0 0 0 16.428 94.797 1 1 0 0 0 16.734 94.948C16.822 94.973 16.911 95 17 95A1 1 0 0 0 17.339 94.934C17.371 94.923 17.399 94.907 17.429 94.892A1 1 0 0 0 17.655 94.743C17.672 94.728 17.692 94.723 17.708 94.708L25.708 86.708A0.999 0.999 0 1 0 24.294 85.294L19.478 90.11C19.836 89.033 20.169 87.95 20.478 86.86 20.558 86.816 20.64 86.776 20.708 86.708L28.708 78.708A0.999 0.999 0 1 0 27.294 77.294L21.432 83.155A69 69 0 0 0 22.272 78.948 0.97 0.97 0 0 0 22.708 78.708L30.708 70.708A0.999 0.999 0 1 0 29.294 69.294L22.695 75.893C22.828 74.705 22.908 73.567 22.95 72.466L30.707 64.708A0.999 0.999 0 1 0 29.293 63.294L22.865 69.722C22.726 68.993 22.471 68.232 22.045 67.37L28.707 60.708A0.999 0.999 0 1 0 27.293 59.294L21.015 65.572A41 41 0 0 0 19.736 63.679L25.708 57.707A0.999 0.999 0 1 0 24.294 56.293L18.545 62.042A31 31 0 0 1 17.285 60.13L22.708 54.707A0.999 0.999 0 1 0 21.294 53.293L16.246 58.341A52 52 0 0 1 15.166 56.248L20.708 50.707A0.999 0.999 0 1 0 19.294 49.293L14.264 54.322A52 52 0 0 1 13.281 51.945 0.96 0.96 0 0 0 13.708 51.707L19.708 45.707A0.999 0.999 0 1 0 18.294 44.293L12.579 50.008A39 39 0 0 1 11.845 47.57L19.708 39.707A0.999 0.999 0 1 0 18.294 38.293L11.331 45.256A19 19 0 0 1 11.018 42.398L18.708 34.708A0.999 0.999 0 1 0 17.294 33.294L11.082 39.506A53 53 0 0 1 11.424 35.897 1 1 0 0 0 11.708 35.709L19.708 27.709A0.999 0.999 0 1 0 18.294 26.295L11.94 32.649A50 50 0 0 1 13.067 27.989 1 1 0 0 0 13.708 27.709L21.708 19.709A0.999 0.999 0 1 0 20.294 18.295L14.374 24.215C15.667 21.015 17.397 18.02 19.708 15.709 27.786 7.628 40.344 7 44 7 53.283 7 62.885 9.294 68.463 12.844 78.736 19.381 83 33.756 83 40 83 42.215 82.684 43.425 82.405 44.493 82.197 45.29 82 46.043 82 47 82 49.431 86.256 55.67 87.293 56.707 89.454 58.869 89.959 59.701 90 60 90 61.109 89.201 61.588 87.377 62.414 86.345 62.881 85.175 63.411 84.293 64.293A1 1 0 0 0 84.071 65.371L85.81 69.719C85.123 70.271 83.992 71 83 71A1 1 0 0 0 82.552 72.895 2.56 2.56 0 0 1 83.874 74.385C82.777 74.91 81 76.062 81 78 81 79.371 81.406 80.352 81.703 81.068 81.863 81.453 82 81.785 82 82 82 82.05 81.782 87 74 87 61.52 87 52.701 80.277 52.613 80.21A1 1 0 0 0 51.387 81.789C51.592 81.949 54.362 84.055 58.944 85.95 57.042 90.726 56.062 93.654 56.051 93.683A1.003 1.003 0 0 0 57 95C57.419 95 57.809 94.735 57.949 94.316 57.959 94.287 58.926 91.399 60.81 86.67 64.412 87.959 68.89 89 74 89 82.203 89 84 83.947 84 82 84 81.387 83.782 80.861 83.551 80.304 83.28 79.649 83 78.973 83 78 83 76.967 84.717 76.152 85.316 75.949A1 1 0 0 0 86 75C86 74.926 85.986 73.676 85.123 72.498 86.51 71.873 87.547 70.867 87.707 70.707A1 1 0 0 0 87.929 69.629L86.196 65.297C86.776 64.881 87.499 64.555 88.203 64.235 89.895 63.469 92 62.516 92 60 92 58.817 90.793 57.379 88.707 55.293" fill="#d94141" data-fill-palette-color="accent"></path></svg></g></svg></g></svg></g></svg></g></svg></g></svg></g><defs></defs></svg><rect width="395.52" height="247.2" fill="none" stroke="none" visibility="hidden"></rect></g></svg></g></svg>